<?xml version="1.0" standalone="no"?>
<!DOCTYPE svg PUBLIC "-//W3C//DTD SVG 20010904//EN"
 "http://www.w3.org/TR/2001/REC-SVG-20010904/DTD/svg10.dtd">
<svg version="1.0" xmlns="http://www.w3.org/2000/svg"
 width="300.000000pt" height="300.000000pt" viewBox="0 0 300.000000 300.000000"
 preserveAspectRatio="xMidYMid meet">
<metadata>
Created by potrace 1.10, written by Peter Selinger 2001-2011
</metadata>
<g transform="translate(0.000000,300.000000) scale(0.050000,-0.050000)"
fill="#c11a1a" stroke="none">
<path d="M2990 5829 c-176 -55 -274 -87 -410 -137 -49 -17 -128 -41 -175 -53
-58 -14 -108 -46 -160 -103 -41 -46 -92 -97 -112 -114 -20 -18 -44 -52 -54
-76 -12 -30 -41 -48 -93 -57 -124 -20 -291 -70 -376 -112 -44 -22 -125 -57
-180 -78 -182 -69 -447 -358 -598 -650 -167 -323 -204 -388 -253 -440 -42 -44
-51 -79 -61 -226 -8 -123 -27 -208 -64 -293 -43 -96 -53 -152 -54 -279 0 -135
-6 -165 -43 -205 -24 -25 -37 -52 -30 -60 8 -8 126 98 261 235 284 287 314
361 241 582 l-34 102 -97 -13 c-116 -16 -125 5 -47 109 29 38 64 98 79 134 16
36 37 65 49 65 11 0 72 103 135 230 269 543 519 717 1235 860 616 122 1175
127 1279 12 49 -54 -31 -180 -152 -240 -61 -30 -112 -80 -176 -173 -109 -159
-113 -163 -199 -205 -45 -22 -74 -54 -84 -92 -8 -31 -36 -79 -61 -106 -168
-179 35 -809 303 -942 82 -41 203 -310 253 -563 37 -193 162 -331 218 -241 7
11 38 20 70 20 51 0 61 10 80 79 27 102 73 148 128 130 58 -19 353 -10 395 13
48 25 158 22 216 -7 81 -42 219 -285 182 -322 -14 -14 -30 4 -51 54 -27 64
-37 72 -80 61 -37 -9 -50 -4 -50 17 0 67 -52 80 -245 62 l-185 -17 -11 -83
c-13 -96 -48 -147 -101 -147 -49 0 -48 -34 4 -164 70 -177 62 -279 -27 -371
-112 -115 -103 -165 31 -165 123 0 194 -40 194 -111 0 -27 3 -49 8 -49 36 0
238 112 247 137 7 18 24 40 38 49 15 9 27 40 27 69 0 100 81 301 126 312 114
30 127 -117 24 -260 -39 -53 -90 -126 -112 -162 -23 -36 -55 -65 -71 -65 -16
0 -52 -27 -80 -60 -28 -33 -70 -60 -94 -60 -57 0 -322 -127 -397 -191 -77 -64
-102 -62 -173 14 -102 109 -149 -54 -64 -222 93 -181 67 -314 -69 -352 -55
-15 -88 -39 -107 -77 -27 -56 -93 -92 -170 -92 -31 0 -51 -18 -67 -60 -25 -66
-35 -71 -171 -90 -87 -11 -95 -17 -95 -66 -1 -101 -52 -132 -259 -155 -71 -9
-142 -30 -170 -52 -61 -48 -62 -48 -130 28 -71 80 -65 88 136 199 309 170 455
384 175 257 -47 -21 -105 -34 -129 -28 -24 7 -70 1 -103 -13 -88 -36 -542 27
-640 89 -38 25 -92 58 -120 75 -59 36 -92 157 -129 479 -13 118 -36 229 -50
246 -34 41 -16 82 53 115 65 32 74 149 19 251 -16 30 -50 112 -74 181 -28 80
-65 142 -102 171 -46 36 -60 66 -70 150 -11 86 -19 103 -45 92 -86 -36 -100
-32 -148 44 -26 42 -55 97 -62 122 -20 60 -72 58 -72 -2 0 -27 19 -91 42 -143
33 -74 38 -110 24 -157 l-17 -62 -168 -1 c-160 0 -169 2 -208 56 -37 49 -50
54 -122 43 -93 -13 -295 66 -337 133 -40 64 -53 43 -40 -67 16 -138 38 -195
76 -195 44 0 84 -94 53 -125 -19 -19 -33 -18 -65 2 -53 33 -60 25 -73 -86 -11
-94 75 -746 126 -966 27 -111 26 -139 -3 -268 -64 -283 8 -553 170 -636 99
-51 177 -144 193 -232 l13 -69 2188 0 2187 0 -11 65 c-6 36 -24 110 -38 165
-15 55 -33 174 -39 263 -7 90 -25 202 -41 248 -62 174 -12 365 190 729 55 99
163 304 241 456 77 152 175 314 217 360 96 106 242 332 242 374 0 18 23 109
51 201 46 156 50 199 51 565 0 421 0 420 -127 780 -43 122 -220 416 -351 584
-104 133 -264 375 -334 506 -99 183 -227 272 -513 356 -794 234 -1207 281
-1547 177z m243 -1169 c58 0 104 -75 57 -93 -17 -6 -57 -7 -89 0 -53 10 -59 6
-75 -63 -21 -87 -67 -98 -88 -20 -17 64 94 232 130 196 11 -11 40 -20 65 -20z
m-284 -419 c51 -98 2 -162 -58 -77 -49 70 -41 112 23 134 3 1 19 -24 35 -57z
m-2253 -745 c5 -23 -11 -39 -46 -48 -68 -17 -107 18 -70 62 33 40 107 31 116
-14z m3444 -986 c14 -16 54 -30 90 -30 99 0 117 -38 119 -248 1 -246 -134
-441 -223 -319 -43 57 -25 133 34 147 101 23 81 138 -49 279 -105 115 -128
158 -98 188 24 24 102 14 127 -17z m-3100 -248 c0 -18 36 -104 79 -192 122
-244 94 -333 -94 -303 -46 7 -70 1 -82 -21 -27 -48 -161 -36 -272 23 -102 54
-161 64 -181 31 -22 -35 -82 -21 -130 30 l-46 49 72 31 c40 16 81 30 91 30 10
0 24 30 31 67 17 88 60 125 182 154 127 31 153 45 229 121 65 65 121 56 121
-20z m-152 -684 c269 5 329 -52 378 -366 20 -132 45 -217 73 -255 121 -163 90
-211 -250 -393 -185 -99 -406 -93 -485 13 -30 40 -74 89 -99 109 -63 52 -61
162 4 221 l49 43 -52 42 c-71 56 -50 99 55 116 269 43 366 163 162 202 -82 16
-119 36 -160 86 -29 35 -64 64 -77 64 -44 0 -46 35 -3 90 41 51 49 53 155 40
62 -8 174 -13 250 -12z m3523 -353 c6 -30 24 -111 40 -179 52 -223 30 -346
-69 -383 -73 -29 -448 -117 -593 -140 -67 -11 -158 -39 -204 -63 -166 -86
-226 7 -89 136 44 41 94 103 112 139 38 76 67 81 138 24 l52 -41 96 49 c115
58 138 83 233 257 137 250 256 334 284 201z m-4002 -671 c-16 -42 -46 -44 -62
-4 -21 56 9 102 44 67 17 -17 25 -45 18 -63z"/>
<path d="M1333 4167 c-7 -8 0 -34 16 -58 36 -55 23 -69 -64 -69 -64 0 -127
-23 -174 -64 -11 -10 -50 -36 -86 -57 -73 -43 -84 -102 -34 -175 18 -25 30
-79 29 -120 -6 -110 -5 -113 58 -150 52 -30 58 -44 55 -129 -7 -275 222 -460
373 -300 35 37 93 80 129 94 131 52 65 100 -137 101 -181 0 -245 109 -98 168
100 40 306 16 408 -47 84 -52 200 -40 327 34 116 67 108 77 -65 91 -126 9
-184 27 -363 112 -155 75 -236 102 -300 102 -78 0 -87 5 -87 47 0 129 357 239
527 164 52 -24 37 47 -17 77 -22 12 -61 38 -87 57 -27 19 -78 35 -115 35 -38
0 -98 21 -140 50 -73 49 -129 63 -155 37z"/>
<path d="M3725 2125 c-30 -10 -34 -85 -4 -85 23 0 46 49 36 76 -4 10 -18 14
-32 9z"/>
</g>
</svg>
